<svg width="460" height="336" viewBox="0 0 460 336" fill="none" xmlns="http://www.w3.org/2000/svg">
<path d="M288.002 163.004L358.912 91.6743L307.062 2.93427L61.9316 2.00427L31.1717 52.9043L33.8016 57.3343H277.782L290.772 83.2943H15.2516C11.7516 86.9543 0.481655 103.974 2.17165 107.354L230.482 333.704C232.122 333.814 233.072 332.694 234.272 331.894C236.922 330.134 266.612 300.494 267.692 298.394C268.432 296.964 268.932 296.114 267.692 294.714L110.802 137.074H262.012L287.992 163.004H288.002Z" stroke="white" stroke-width="4" stroke-miterlimit="10"/>
<path d="M288.262 200.054L392.002 98.0842L339.932 5.38425L341.812 1.71423H399.332L459.382 106.104C417.082 149.164 382.852 183.344 339.202 225.034C324.942 238.654 307.492 254.264 288.262 271.444C251.532 240.414 209.622 199.194 175.752 164.894H250.892" fill="#F2DC31"/>
</svg>
